<?xml version="1.0" encoding="UTF-8"?><svg xmlns="http://www.w3.org/2000/svg" xmlns:xlink="http://www.w3.org/1999/xlink" contentScriptType="text/ecmascript" width="1012.5" zoomAndPan="magnify" contentStyleType="text/css" viewBox="0 0 1012.5 487.499991" height="487.499991" preserveAspectRatio="xMidYMid meet" version="1.0"><defs><clipPath id="clip-0"><path d="M 0.269531 0 L 1011.730469 0 L 1011.730469 487 L 0.269531 487 Z M 0.269531 0 " clip-rule="nonzero"/></clipPath><clipPath id="clip-1"><path d="M 932.371094 79.863281 L 951.859375 79.863281 L 951.859375 99.351562 L 932.371094 99.351562 Z M 932.371094 79.863281 " clip-rule="nonzero"/></clipPath><clipPath id="clip-2"><path d="M 435.808594 238 L 963.527344 238 L 963.527344 409 L 435.808594 409 Z M 435.808594 238 " clip-rule="nonzero"/></clipPath><clipPath id="clip-3"><path d="M 517.382812 48.949219 L 880.824219 48.949219 L 880.824219 452.519531 L 517.382812 452.519531 Z M 517.382812 48.949219 " clip-rule="nonzero"/></clipPath><clipPath id="clip-4"><path d="M 48.992188 48.722656 L 102.214844 48.722656 L 102.214844 101.945312 L 48.992188 101.945312 Z M 48.992188 48.722656 " clip-rule="nonzero"/></clipPath></defs><g clip-path="url(#clip-0)"><path fill="rgb(100%, 100%, 100%)" d="M 0.269531 0 L 1012.230469 0 L 1012.230469 493.988281 L 0.269531 493.988281 Z M 0.269531 0 " fill-opacity="1" fill-rule="nonzero"/><path fill="rgb(100%, 100%, 100%)" d="M 0.269531 0 L 1012.230469 0 L 1012.230469 487.242188 L 0.269531 487.242188 Z M 0.269531 0 " fill-opacity="1" fill-rule="nonzero"/><path fill="rgb(100%, 100%, 100%)" d="M 0.269531 0 L 1012.230469 0 L 1012.230469 487.242188 L 0.269531 487.242188 Z M 0.269531 0 " fill-opacity="1" fill-rule="nonzero"/></g><g clip-path="url(#clip-1)"><path fill="rgb(0%, 0%, 0%)" d="M 941.707031 83.109375 L 940.492188 83.109375 L 940.492188 80.265625 C 940.492188 80.109375 940.394531 79.964844 940.25 79.898438 C 940.105469 79.832031 939.933594 79.859375 939.816406 79.964844 L 932.507812 86.460938 C 932.417969 86.539062 932.371094 86.648438 932.371094 86.765625 C 932.371094 86.878906 932.417969 86.992188 932.507812 87.066406 L 939.816406 93.5625 C 939.933594 93.671875 940.105469 93.695312 940.25 93.632812 C 940.398438 93.566406 940.492188 93.421875 940.492188 93.261719 L 940.492188 90.410156 L 940.609375 90.414062 C 940.703125 90.417969 940.800781 90.417969 940.894531 90.417969 C 944.289062 90.417969 947.800781 92.242188 947.800781 95.292969 C 947.800781 96.414062 947.007812 97.835938 946.273438 98.679688 C 946.144531 98.828125 946.140625 99.042969 946.261719 99.199219 C 946.339844 99.296875 946.460938 99.351562 946.582031 99.351562 C 946.644531 99.351562 946.710938 99.335938 946.769531 99.304688 C 949.765625 97.738281 951.859375 94.585938 951.859375 91.636719 C 951.859375 87.015625 947.210938 83.109375 941.707031 83.109375 Z M 941.707031 83.109375 " fill-opacity="1" fill-rule="nonzero"/></g><path fill="rgb(21.569824%, 52.159119%, 73.329163%)" d="M 859.59375 402.488281 C 860.398438 406.6875 864.4375 398.613281 869.6875 385.292969 C 869.285156 388.359375 868.234375 388.835938 867.828125 392.960938 C 867.585938 395.539062 866.859375 402.398438 870.253906 404.265625 C 872.675781 405.628906 876.066406 403.859375 877.359375 403.125 C 879.78125 404.742188 886.566406 408.859375 895.9375 408.542969 C 902.316406 408.300781 907.164062 406.121094 909.746094 404.667969 C 910.714844 405.546875 916.128906 410.230469 923.960938 409.585938 C 933.816406 408.859375 938.824219 400.382812 939.144531 399.664062 C 943.34375 401.511719 948.273438 400.945312 951.90625 398.121094 C 957.398438 393.921875 956.914062 387.222656 956.914062 386.816406 C 955.945312 385.363281 952.957031 381.410156 947.464844 379.550781 C 939.46875 376.886719 932.601562 380.925781 931.554688 381.570312 C 929.613281 380.691406 925.738281 379.238281 920.730469 379.480469 C 915.804688 379.714844 912.089844 381.410156 910.230469 382.378906 C 908.617188 381.660156 905.546875 380.449219 901.589844 380.601562 C 898.84375 380.691406 896.582031 381.410156 895.128906 381.972656 C 897.066406 380.199219 899.8125 377.21875 901.507812 372.933594 C 905.0625 363.648438 899.894531 358.085938 902.398438 348.875 C 904.660156 340.484375 909.988281 341.769531 913.785156 333.058594 C 918.792969 321.511719 916.207031 303.347656 905.386719 298.011719 C 903.609375 297.132812 901.75 296.640625 899.972656 296.484375 L 907.96875 269.683594 C 908.535156 266.523438 909.585938 258.539062 905.0625 250.871094 C 904.09375 249.257812 899.652344 241.738281 894.5625 242.230469 C 890.363281 242.636719 887.617188 248.289062 884.871094 255.714844 C 877.199219 276.214844 875.582031 293.09375 875.582031 293.09375 C 873 320.050781 867.425781 318.195312 862.5 349.367188 C 860.5625 361.71875 855.230469 380.199219 859.589844 402.488281 Z M 539.84375 403.699219 C 539.035156 407.898438 534.996094 399.824219 529.746094 386.503906 C 530.152344 389.570312 531.199219 390.046875 531.605469 394.171875 C 531.847656 396.75 532.574219 403.609375 529.183594 405.476562 C 526.757812 406.839844 523.367188 405.070312 522.074219 404.335938 C 519.652344 405.953125 512.863281 410.070312 503.496094 409.753906 C 497.113281 409.511719 492.269531 407.332031 489.683594 405.878906 C 488.714844 406.757812 483.304688 411.441406 475.46875 410.796875 C 465.617188 410.070312 460.609375 401.59375 460.285156 400.875 C 456.085938 402.722656 451.160156 402.15625 447.527344 399.332031 C 442.035156 395.132812 442.515625 388.433594 442.515625 388.027344 C 443.488281 386.574219 446.476562 382.621094 451.96875 380.761719 C 459.960938 378.097656 466.828125 382.136719 467.878906 382.78125 C 469.816406 381.902344 473.691406 380.449219 478.699219 380.691406 C 483.628906 380.925781 487.339844 382.621094 489.199219 383.589844 C 490.8125 382.871094 493.882812 381.660156 497.839844 381.8125 C 500.589844 381.902344 502.851562 382.621094 504.300781 383.183594 C 502.363281 381.410156 499.621094 378.429688 497.921875 374.144531 C 494.371094 364.859375 499.539062 359.296875 497.03125 350.085938 C 494.773438 341.695312 489.441406 342.980469 485.648438 334.269531 C 480.640625 322.722656 483.222656 304.558594 494.042969 299.222656 C 495.820312 298.34375 497.679688 297.851562 499.457031 297.695312 L 491.460938 270.894531 C 490.894531 267.734375 489.84375 259.75 494.371094 252.082031 C 495.339844 250.46875 499.78125 242.949219 504.871094 243.445312 C 509.070312 243.847656 511.8125 249.5 514.5625 256.925781 C 522.234375 277.425781 523.851562 294.304688 523.851562 294.304688 C 526.433594 321.261719 532.007812 319.40625 536.933594 350.578125 C 538.953125 362.929688 544.285156 381.496094 539.84375 403.699219 " fill-opacity="1" fill-rule="nonzero"/><g clip-path="url(#clip-2)"><path fill="rgb(5.879211%, 5.488586%, 4.708862%)" d="M 957.558594 395.132812 C 956.429688 395.941406 955.21875 396.59375 953.925781 397 L 944.316406 386.011719 C 950.371094 385.128906 956.429688 384.324219 962.40625 383.589844 C 963.375 387.464844 961.355469 392.308594 957.558594 395.132812 Z M 944.800781 396.34375 C 944.71875 396.265625 944.558594 396.265625 944.476562 396.34375 C 944.394531 396.433594 944.234375 396.507812 944.234375 396.59375 C 943.585938 398.121094 942.699219 399.492188 941.648438 400.703125 C 940.839844 401.679688 939.871094 402.488281 938.902344 403.125 L 924.285156 389.078125 C 930.585938 388.027344 936.882812 387.148438 943.265625 386.171875 L 952.957031 397.242188 C 950.292969 397.804688 947.382812 397.554688 944.800781 396.34375 Z M 927.03125 406.121094 C 921.136719 405.789062 916.855469 402.890625 914.835938 401.1875 C 914.753906 401.109375 914.671875 401.109375 914.511719 401.109375 C 914.429688 401.109375 914.351562 401.109375 914.269531 401.1875 C 913.460938 401.679688 912.414062 402.320312 911.039062 402.890625 L 902.476562 392.871094 C 906.597656 392.15625 910.796875 391.347656 914.917969 390.691406 C 917.582031 390.207031 920.328125 389.804688 922.992188 389.328125 L 937.933594 403.699219 C 933.652344 406.195312 928.726562 406.195312 927.03125 406.121094 Z M 899.488281 404.578125 C 896.179688 404.175781 893.109375 403.125 890.121094 401.277344 C 889.070312 400.875 885.761719 399.421875 884.546875 396.265625 C 890.203125 395.132812 895.855469 394.011719 901.507812 392.960938 L 910.152344 403.125 C 907.40625 404.265625 903.691406 405.144531 899.488281 404.578125 Z M 876.714844 402.488281 L 886.488281 368.8125 L 908.453125 359.207031 C 908.695312 362.121094 908.535156 365.179688 907.082031 368.8125 C 905.628906 372.617188 903.125 376.082031 899.8125 379.148438 C 895.371094 379.882812 890.28125 381.660156 886.730469 386.011719 C 885.4375 387.550781 882.125 391.589844 883.5 396.101562 C 883.902344 397.476562 884.628906 398.523438 885.515625 399.421875 C 882.769531 402.246094 879.296875 403.125 876.714844 402.488281 Z M 875.90625 402.15625 C 875.582031 401.996094 875.179688 401.84375 874.9375 401.59375 C 873 400.140625 872.675781 397.402344 872.59375 396.507812 C 872.191406 393.203125 873.320312 390.613281 874.292969 388.59375 C 874.453125 388.191406 874.613281 387.785156 874.777344 387.464844 C 876.390625 383.675781 875.746094 380.925781 874.9375 377.535156 C 874.371094 375.113281 873.726562 372.449219 873.644531 368.582031 C 873.5625 366.320312 873.726562 364.707031 874.046875 363.089844 L 884.304688 373.335938 Z M 872.351562 390.691406 L 868.234375 399.664062 C 867.425781 400.632812 866.054688 401.753906 865.246094 401.753906 C 868.316406 375.441406 873 349.035156 879.136719 323.199219 C 885.273438 297.609375 893.027344 272.105469 902.15625 247.390625 C 902.234375 247.148438 902.15625 246.90625 901.914062 246.835938 C 901.671875 246.746094 901.429688 246.835938 901.347656 247.078125 C 892.222656 271.773438 884.46875 297.367188 878.328125 323.039062 C 872.191406 348.558594 867.585938 374.707031 864.519531 400.875 C 864.4375 400.46875 864.355469 399.824219 864.4375 398.855469 C 865.890625 361.546875 866.699219 342.816406 870.65625 328.042969 C 871.464844 324.984375 872.03125 323.039062 872.757812 320.707031 C 873.644531 317.628906 874.695312 314.246094 876.550781 307.296875 C 877.765625 302.78125 878.8125 299.222656 879.621094 296.394531 C 881.316406 290.503906 882.367188 286.949219 883.015625 282.429688 C 883.578125 278.070312 890.203125 244.414062 898.441406 239.640625 C 899.410156 239.074219 900.378906 239.003906 901.347656 239.40625 C 910.714844 243.199219 913.058594 256.523438 910.636719 264.34375 C 908.453125 271.457031 904.496094 288.96875 903.851562 291.640625 C 896.097656 291.957031 888.101562 297.367188 884.871094 303.589844 C 883.417969 306.328125 883.335938 308.265625 883.09375 312.226562 C 882.933594 315.457031 882.691406 319.96875 881.558594 327.238281 C 880.832031 331.757812 880.1875 334.90625 879.378906 338.941406 C 877.28125 349.117188 875.582031 354.523438 874.535156 358.15625 C 873.242188 362.28125 872.59375 364.300781 872.757812 368.742188 C 872.917969 372.617188 873.5625 375.515625 874.128906 377.863281 C 874.9375 381.253906 875.503906 383.75 873.96875 387.222656 C 873.804688 387.550781 873.644531 387.957031 873.484375 388.359375 C 873.078125 388.925781 872.675781 389.804688 872.351562 390.691406 Z M 909.261719 293.167969 C 919.601562 296.636719 923.71875 312.542969 920.40625 323.933594 C 919.035156 328.617188 916.855469 330.707031 914.511719 332.96875 C 913.382812 334.097656 912.25 335.148438 911.199219 336.601562 L 895.289062 338.0625 L 905.304688 303.589844 C 905.386719 303.347656 905.222656 303.097656 904.980469 303.015625 C 904.738281 302.945312 904.496094 303.097656 904.417969 303.347656 L 900.703125 316.101562 L 886.890625 301.804688 C 891.65625 295.425781 901.507812 290.582031 909.261719 293.167969 Z M 879.703125 341.605469 C 879.863281 340.800781 880.027344 339.917969 880.269531 339.023438 C 881.074219 334.988281 881.722656 331.847656 882.449219 327.316406 C 883.578125 319.96875 883.820312 315.457031 883.984375 312.226562 C 884.226562 308.433594 884.304688 306.488281 885.597656 303.992188 C 885.839844 303.5 886.164062 303.015625 886.488281 302.539062 L 900.539062 317.070312 L 894.402344 338.464844 L 890.445312 352.265625 Z M 890.039062 353.242188 L 884.546875 372.375 L 874.210938 362.03125 C 874.453125 360.910156 874.855469 359.773438 875.339844 358.320312 C 876.308594 355.171875 877.765625 350.648438 879.460938 342.65625 Z M 908.210938 343.222656 C 907 347.992188 907.484375 351.789062 907.96875 355.421875 C 908.132812 356.382812 908.210938 357.277344 908.292969 358.15625 L 886.730469 367.601562 L 895.046875 338.941406 L 910.554688 337.496094 C 909.667969 339.023438 908.859375 340.886719 908.210938 343.222656 Z M 888.828125 394.488281 C 887.292969 394.820312 885.839844 395.054688 884.304688 395.382812 C 883.417969 391.5 886.324219 387.867188 887.457031 386.503906 C 890.363281 383.023438 894.402344 381.253906 898.199219 380.359375 Z M 907.164062 379.390625 C 910.3125 379.390625 913.542969 379.714844 916.613281 380.519531 C 916.773438 380.519531 916.933594 380.519531 917.015625 380.449219 C 917.824219 379.640625 919.195312 378.582031 921.054688 377.695312 L 912.734375 389.972656 C 909.019531 390.613281 905.222656 391.257812 901.429688 391.992188 L 901.347656 391.992188 C 897.472656 392.710938 893.675781 393.4375 889.878906 394.171875 L 899.246094 380.042969 C 902.640625 379.480469 905.546875 379.480469 907.164062 379.390625 Z M 922.667969 377.21875 C 923.71875 376.886719 924.769531 376.652344 926.0625 376.484375 C 930.261719 376.160156 933.492188 377.695312 935.105469 378.671875 C 935.269531 378.746094 935.429688 378.746094 935.511719 378.671875 C 937.367188 377.777344 939.308594 377.058594 941.246094 376.652344 L 934.945312 386.414062 C 928.242188 387.464844 921.539062 388.519531 914.835938 389.644531 C 914.59375 389.730469 914.351562 389.730469 914.109375 389.804688 Z M 942.457031 376.484375 C 944.152344 376.160156 945.769531 376.082031 947.464844 376.160156 C 957.480469 376.652344 960.953125 379.957031 962.082031 382.78125 C 955.863281 383.589844 949.644531 384.394531 943.425781 385.292969 L 943.183594 385.292969 C 940.839844 385.605469 938.5 385.9375 936.078125 386.339844 Z M 963.050781 382.707031 C 961.4375 378.097656 956.1875 375.605469 947.464844 375.199219 C 945.6875 375.113281 943.910156 375.273438 942.132812 375.605469 L 941.972656 375.605469 C 939.710938 376.007812 937.367188 376.726562 935.269531 377.777344 C 933.574219 376.726562 930.179688 375.199219 925.898438 375.605469 C 924.527344 375.675781 923.316406 376.007812 922.265625 376.324219 L 922.183594 376.324219 C 919.601562 377.21875 917.742188 378.582031 916.613281 379.550781 C 913.542969 378.746094 910.3125 378.429688 907.164062 378.429688 C 905.871094 378.429688 903.769531 378.429688 901.347656 378.746094 C 904.335938 375.847656 906.515625 372.527344 907.890625 368.984375 C 909.425781 364.945312 909.503906 361.546875 909.261719 358.398438 C 909.183594 357.351562 909.019531 356.300781 908.859375 355.257812 C 908.375 351.699219 907.890625 347.992188 909.019531 343.382812 C 909.667969 340.726562 910.636719 338.78125 911.765625 337.253906 C 912.816406 335.792969 913.945312 334.746094 915.078125 333.535156 C 917.417969 331.273438 919.761719 329.019531 921.214844 324.089844 C 924.203125 313.753906 921.136719 296.234375 909.425781 292.289062 C 907.890625 291.714844 906.195312 291.480469 904.578125 291.480469 C 905.304688 288.160156 909.101562 271.367188 911.28125 264.433594 C 913.703125 256.433594 911.683594 242.546875 901.429688 238.355469 C 900.214844 237.863281 898.925781 237.953125 897.714844 238.671875 C 888.992188 243.675781 882.449219 277.511719 881.800781 282.195312 C 881.238281 286.636719 880.1875 290.179688 878.492188 295.992188 C 877.683594 298.820312 876.632812 302.453125 875.421875 306.890625 C 873.5625 313.753906 872.515625 317.226562 871.625 320.300781 C 870.980469 322.636719 870.332031 324.652344 869.527344 327.640625 C 865.488281 342.414062 864.761719 361.226562 863.308594 398.613281 C 863.226562 400.066406 863.308594 401.753906 864.355469 402.320312 L 864.4375 402.320312 C 864.679688 402.398438 864.839844 402.488281 865.082031 402.488281 C 866.617188 402.488281 868.476562 400.46875 868.878906 400.066406 L 868.960938 399.976562 L 871.464844 394.488281 C 871.464844 395.132812 871.464844 395.789062 871.546875 396.507812 C 871.707031 397.476562 872.03125 400.542969 874.292969 402.246094 C 874.777344 402.5625 875.261719 402.804688 875.90625 403.054688 C 875.90625 403.054688 875.988281 403.125 876.066406 403.125 L 876.148438 403.125 C 876.875 403.367188 877.601562 403.457031 878.492188 403.457031 C 880.996094 403.457031 883.902344 402.320312 886.246094 399.898438 C 887.699219 401.109375 889.234375 401.753906 889.796875 401.996094 C 892.785156 403.859375 896.015625 405.070312 899.488281 405.386719 C 906.355469 406.195312 911.765625 403.609375 914.59375 401.914062 C 916.773438 403.699219 921.136719 406.523438 927.03125 406.839844 L 928.082031 406.839844 C 930.503906 406.839844 935.027344 406.4375 939.066406 403.933594 C 939.144531 403.933594 939.226562 403.859375 939.226562 403.859375 C 940.355469 403.125 941.40625 402.246094 942.375 401.1875 C 943.425781 400.066406 944.234375 398.6875 944.878906 397.242188 C 947.789062 398.453125 951.019531 398.613281 953.925781 397.804688 C 955.378906 397.402344 956.832031 396.667969 958.125 395.789062 C 962.40625 392.628906 964.585938 386.980469 963.050781 382.707031 Z M 535.078125 402.085938 C 532.007812 376.007812 527.40625 349.84375 521.265625 324.25 C 515.125 298.578125 507.371094 273.074219 498.246094 248.289062 C 498.164062 248.046875 497.921875 247.957031 497.679688 248.046875 C 497.4375 248.117188 497.359375 248.359375 497.4375 248.601562 C 506.5625 273.316406 514.320312 298.820312 520.460938 324.410156 C 526.597656 350.171875 531.28125 376.652344 534.351562 402.964844 C 533.542969 402.964844 532.171875 401.84375 531.363281 400.875 L 527.242188 391.902344 C 526.921875 390.945312 526.515625 390.136719 526.195312 389.402344 C 526.03125 388.996094 525.871094 388.675781 525.707031 388.269531 C 524.175781 384.726562 524.820312 382.304688 525.546875 378.90625 C 526.113281 376.566406 526.757812 373.738281 526.921875 369.792969 C 527.082031 365.351562 526.4375 363.332031 525.144531 359.207031 C 524.011719 355.664062 522.316406 350.246094 520.296875 339.992188 C 519.488281 335.957031 518.84375 332.816406 518.117188 328.285156 C 516.984375 321.019531 516.742188 316.507812 516.582031 313.277344 C 516.335938 309.3125 516.253906 307.382812 514.800781 304.632812 C 511.492188 298.34375 503.574219 293.003906 495.820312 292.691406 C 495.257812 290.027344 491.300781 272.507812 489.039062 265.402344 C 486.613281 257.570312 489.039062 244.324219 498.324219 240.449219 C 499.292969 240.042969 500.265625 240.125 501.234375 240.691406 C 509.472656 245.460938 516.09375 279.128906 516.664062 283.480469 C 517.308594 288.007812 518.277344 291.550781 520.054688 297.445312 C 520.863281 300.273438 521.914062 303.824219 523.125 308.34375 C 524.980469 315.296875 526.03125 318.6875 526.921875 321.753906 C 527.566406 324.089844 528.210938 326.027344 529.019531 329.09375 C 532.976562 343.785156 533.785156 362.523438 535.238281 399.898438 C 535.238281 400.945312 535.160156 401.59375 535.078125 402.085938 Z M 526.921875 397.804688 C 526.839844 398.6875 526.4375 401.4375 524.578125 402.890625 C 524.253906 403.125 523.933594 403.296875 523.609375 403.457031 L 515.285156 374.636719 L 525.546875 364.375 C 525.871094 365.988281 526.03125 367.601562 525.949219 369.863281 C 525.789062 373.660156 525.222656 376.410156 524.660156 378.832031 C 523.851562 382.304688 523.203125 384.960938 524.820312 388.761719 C 524.980469 389.078125 525.144531 389.480469 525.304688 389.886719 C 526.195312 391.902344 527.40625 394.488281 526.921875 397.804688 Z M 513.992188 400.632812 C 514.882812 399.734375 515.609375 398.6875 516.011719 397.3125 C 517.308594 392.800781 513.992188 388.761719 512.78125 387.222656 C 509.230469 382.941406 504.140625 381.167969 499.699219 380.359375 C 496.308594 377.292969 493.882812 373.828125 492.429688 370.023438 C 491.058594 366.390625 490.8125 363.332031 491.058594 360.417969 L 513.023438 370.023438 L 522.800781 403.699219 C 520.136719 404.335938 516.664062 403.53125 513.992188 400.632812 Z M 509.230469 402.5625 C 506.402344 404.335938 503.253906 405.476562 499.941406 405.878906 C 495.742188 406.355469 492.027344 405.546875 489.199219 404.417969 L 497.839844 394.246094 C 503.496094 395.292969 509.230469 396.34375 514.800781 397.554688 C 513.671875 400.632812 510.359375 402.15625 509.230469 402.5625 Z M 485.160156 402.398438 C 485 402.320312 484.757812 402.320312 484.597656 402.398438 C 482.578125 404.101562 478.296875 407 472.398438 407.332031 C 470.707031 407.40625 465.699219 407.40625 461.335938 404.820312 L 476.277344 390.449219 C 479.023438 390.855469 481.6875 391.347656 484.351562 391.824219 C 488.472656 392.558594 492.671875 393.277344 496.792969 394.011719 L 488.390625 404.101562 C 487.101562 403.53125 485.96875 402.890625 485.160156 402.398438 Z M 457.863281 401.996094 C 456.816406 400.785156 455.925781 399.421875 455.277344 397.878906 C 455.199219 397.804688 455.117188 397.644531 455.035156 397.644531 L 454.875 397.644531 C 454.796875 397.644531 454.714844 397.644531 454.714844 397.71875 C 452.128906 398.929688 449.21875 399.171875 446.554688 398.613281 L 456.246094 387.550781 C 462.546875 388.433594 468.929688 389.402344 475.226562 390.449219 L 460.609375 404.507812 C 459.640625 403.699219 458.667969 402.890625 457.863281 401.996094 Z M 445.585938 398.210938 C 444.296875 397.804688 443.085938 397.152344 441.953125 396.34375 C 438.074219 393.519531 436.136719 388.675781 437.105469 384.800781 C 443.164062 385.535156 449.140625 386.339844 455.199219 387.222656 Z M 451.96875 377.371094 C 453.582031 377.292969 455.277344 377.460938 456.976562 377.695312 L 463.277344 387.550781 C 460.929688 387.222656 458.589844 386.816406 456.167969 386.503906 L 455.925781 386.503906 C 449.707031 385.605469 443.488281 384.800781 437.265625 383.992188 C 438.476562 381.167969 441.953125 377.863281 451.96875 377.371094 Z M 464 379.957031 C 464.160156 380.042969 464.324219 380.042969 464.40625 379.957031 C 465.9375 378.988281 469.167969 377.460938 473.449219 377.777344 C 474.660156 377.863281 475.792969 378.097656 476.84375 378.503906 L 485.402344 391.097656 C 485.160156 391.015625 484.917969 391.015625 484.679688 390.945312 C 478.054688 389.804688 471.269531 388.761719 464.566406 387.714844 L 458.265625 377.9375 C 460.207031 378.429688 462.140625 379.074219 464 379.957031 Z M 501.3125 381.570312 C 505.109375 382.464844 509.148438 384.234375 512.054688 387.714844 C 513.1875 389.078125 516.09375 392.710938 515.207031 396.59375 C 513.671875 396.265625 512.21875 396.03125 510.683594 395.699219 Z M 482.332031 381.730469 C 482.417969 381.8125 482.578125 381.902344 482.738281 381.8125 C 485.808594 381.003906 489.039062 380.601562 492.1875 380.691406 C 493.882812 380.691406 496.792969 380.761719 500.023438 381.328125 L 509.390625 395.457031 C 505.59375 394.730469 501.71875 394.011719 497.921875 393.277344 L 497.839844 393.277344 C 494.042969 392.558594 490.332031 391.902344 486.613281 391.257812 L 478.296875 378.988281 C 480.152344 379.882812 481.527344 381.003906 482.332031 381.730469 Z M 488.878906 338.78125 L 504.382812 340.234375 L 512.621094 368.894531 L 491.058594 359.457031 C 491.140625 358.5625 491.300781 357.59375 491.378906 356.703125 C 491.863281 353.070312 492.351562 349.277344 491.140625 344.523438 C 490.652344 342.101562 489.847656 340.324219 488.878906 338.78125 Z M 520.054688 343.957031 C 521.832031 351.859375 523.203125 356.46875 524.175781 359.609375 C 524.660156 361.070312 524.980469 362.28125 525.304688 363.332031 L 514.964844 373.660156 L 509.390625 354.453125 Z M 509.148438 353.476562 L 498.972656 318.285156 L 513.023438 303.75 C 513.351562 304.226562 513.589844 304.710938 513.914062 305.203125 C 515.207031 307.699219 515.371094 309.644531 515.53125 313.4375 C 515.691406 316.742188 515.933594 321.179688 517.066406 328.527344 C 517.792969 333.058594 518.441406 336.285156 519.246094 340.234375 C 519.410156 341.128906 519.652344 342.011719 519.8125 342.816406 Z M 484.917969 334.179688 C 482.578125 331.917969 480.398438 329.828125 479.023438 325.144531 C 475.710938 313.84375 479.832031 297.9375 490.167969 294.378906 C 491.785156 293.8125 493.480469 293.570312 495.179688 293.660156 L 495.417969 293.660156 C 501.960938 293.8125 508.742188 297.851562 512.460938 302.945312 L 498.648438 317.226562 L 494.933594 304.46875 C 494.851562 304.226562 494.609375 304.066406 494.371094 304.15625 C 494.128906 304.226562 493.964844 304.46875 494.042969 304.710938 L 504.0625 339.183594 L 488.148438 337.730469 C 487.179688 336.449219 486.050781 335.308594 484.917969 334.179688 Z M 529.828125 329.019531 C 529.019531 325.953125 528.375 323.933594 527.726562 321.667969 C 526.839844 318.597656 525.789062 315.207031 523.933594 308.265625 C 522.71875 303.75 521.671875 300.191406 520.863281 297.367188 C 519.167969 291.550781 518.117188 288.007812 517.550781 283.566406 C 516.90625 278.964844 510.359375 245.128906 501.640625 240.042969 C 500.425781 239.316406 499.132812 239.238281 497.921875 239.722656 C 487.664062 243.917969 485.648438 257.804688 488.070312 265.804688 C 490.167969 272.742188 494.042969 289.535156 494.773438 292.851562 C 493.160156 292.851562 491.460938 293.09375 489.929688 293.660156 C 478.21875 297.609375 475.148438 315.125 478.136719 325.460938 C 479.589844 330.394531 481.929688 332.652344 484.273438 334.90625 C 485.484375 336.042969 486.613281 337.167969 487.582031 338.621094 C 488.714844 340.152344 489.601562 342.101562 490.332031 344.765625 C 491.460938 349.367188 490.976562 353.070312 490.492188 356.632812 C 490.332031 357.679688 490.25 358.722656 490.089844 359.773438 C 489.765625 362.929688 489.847656 366.320312 491.460938 370.355469 C 492.832031 373.902344 495.015625 377.21875 498.003906 380.117188 C 495.582031 379.792969 493.5625 379.792969 492.1875 379.792969 C 489.039062 379.792969 485.808594 380.117188 482.738281 380.925781 C 481.609375 379.957031 479.75 378.582031 477.167969 377.695312 L 477.085938 377.695312 C 475.953125 377.292969 474.824219 377.058594 473.449219 376.96875 C 469.167969 376.652344 465.777344 378.097656 464.082031 379.148438 C 461.898438 378.097656 459.640625 377.371094 457.296875 376.96875 L 457.21875 376.96875 C 455.4375 376.652344 453.664062 376.484375 451.886719 376.566406 C 443.164062 376.96875 437.914062 379.480469 436.296875 384.082031 C 434.765625 388.359375 436.945312 394.011719 441.304688 397.242188 C 442.597656 398.210938 443.96875 398.855469 445.507812 399.257812 C 448.414062 400.066406 451.644531 399.898438 454.550781 398.6875 C 455.199219 400.140625 456.085938 401.4375 457.054688 402.648438 C 458.027344 403.773438 459.074219 404.578125 460.207031 405.3125 C 460.285156 405.386719 460.285156 405.386719 460.367188 405.386719 C 464.40625 407.898438 468.929688 408.300781 471.351562 408.300781 L 472.398438 408.300781 C 478.296875 407.96875 482.660156 405.144531 484.839844 403.367188 C 485.726562 403.933594 486.859375 404.507812 488.230469 405.070312 C 491.21875 406.28125 495.257812 407.332031 499.941406 406.757812 C 503.332031 406.355469 506.644531 405.226562 509.472656 403.367188 C 510.121094 403.125 511.652344 402.488281 513.105469 401.1875 C 515.449219 403.699219 518.277344 404.820312 520.78125 404.820312 C 521.671875 404.820312 522.476562 404.667969 523.203125 404.417969 C 523.851562 404.175781 524.417969 403.933594 524.902344 403.53125 C 527.082031 401.914062 527.484375 398.855469 527.648438 397.804688 C 527.726562 397.070312 527.726562 396.433594 527.726562 395.789062 L 530.230469 401.277344 L 530.3125 401.351562 C 530.714844 401.84375 532.574219 403.773438 534.109375 403.773438 C 534.351562 403.773438 534.59375 403.699219 534.753906 403.609375 L 534.835938 403.609375 C 535.886719 403.054688 535.964844 401.351562 535.886719 399.898438 C 534.59375 362.597656 533.867188 343.867188 529.828125 329.019531 " fill-opacity="1" fill-rule="nonzero"/></g><path fill="rgb(100%, 100%, 100%)" d="M 561.8125 181.351562 L 522.476562 181.351562 L 522.476562 405.144531 L 542.023438 405.144531 L 521.1875 424.359375 L 526.191406 430.253906 L 548.484375 413.863281 C 550.101562 410.964844 551.714844 408.050781 553.25 405.144531 L 554.136719 405.144531 L 553.25 440.101562 L 561.730469 440.101562 L 569.804688 405.144531 L 824.621094 405.144531 L 834.3125 446.890625 L 842.792969 446.890625 L 841.824219 410.15625 C 843.761719 413.621094 845.699219 417.183594 847.558594 420.652344 L 869.847656 437.035156 L 874.855469 431.148438 L 852.242188 410.230469 C 852.324219 408.542969 852.402344 406.929688 852.484375 405.226562 L 871.140625 405.226562 L 871.140625 181.351562 L 561.8125 181.351562 " fill-opacity="1" fill-rule="nonzero"/><path fill="rgb(21.569824%, 52.159119%, 73.329163%)" d="M 608.332031 415.40625 L 608.332031 394.648438 L 736.667969 394.648438 L 736.667969 429.445312 L 736.75 429.445312 L 714.699219 429.445312 L 714.699219 450.195312 L 608.089844 450.195312 M 608.171875 450.195312 L 586.28125 450.195312 L 586.28125 415.40625 L 608.332031 415.40625 " fill-opacity="1" fill-rule="nonzero"/><path fill="rgb(21.569824%, 52.159119%, 73.329163%)" d="M 549.453125 325.460938 L 650.167969 325.460938 L 650.167969 332.96875 L 549.453125 332.96875 Z M 634.660156 244.65625 L 592.179688 244.65625 L 592.179688 239.003906 L 634.660156 239.003906 Z M 653.480469 235.683594 L 592.179688 235.683594 L 592.179688 230.035156 L 653.480469 230.035156 Z M 604.617188 374.304688 C 604.617188 377.695312 601.789062 380.519531 598.398438 380.519531 L 568.917969 380.519531 C 568.917969 379.390625 568.835938 378.269531 568.59375 377.128906 C 568.191406 375.675781 567.789062 374.304688 567.382812 372.933594 C 567.058594 371.40625 566.898438 369.863281 566.898438 368.25 L 566.898438 368.085938 L 598.476562 368.085938 C 601.789062 368.085938 604.617188 370.914062 604.617188 374.304688 Z M 653.964844 380.601562 L 616.8125 380.601562 C 613.742188 380.601562 611.320312 378.097656 611.320312 375.113281 L 611.320312 373.660156 C 611.320312 370.597656 613.824219 368.175781 616.8125 368.175781 L 653.964844 368.175781 C 657.03125 368.175781 659.457031 370.671875 659.457031 373.660156 L 659.457031 375.113281 C 659.535156 378.097656 657.03125 380.601562 653.964844 380.601562 Z M 549.453125 299.222656 L 660.101562 299.222656 L 660.101562 317.316406 L 549.453125 317.316406 Z M 770.023438 338.214844 L 725.683594 306.085938 L 686.59375 357.59375 L 671.8125 259.5 L 856.847656 231.972656 L 871.058594 308.433594 L 819.53125 271.609375 Z M 863.066406 225.351562 L 666.644531 254.101562 L 683.363281 368.339844 L 879.78125 339.589844 L 863.066406 225.351562 " fill-opacity="1" fill-rule="nonzero"/><path fill="rgb(21.569824%, 52.159119%, 73.329163%)" d="M 855.632812 201.777344 L 841.660156 201.777344 C 840.933594 201.777344 840.371094 201.21875 840.371094 200.484375 C 840.371094 199.757812 840.933594 199.203125 841.660156 199.203125 L 855.632812 199.203125 C 856.359375 199.203125 856.925781 199.757812 856.925781 200.484375 C 856.925781 201.21875 856.359375 201.777344 855.632812 201.777344 Z M 855.632812 206.304688 L 841.660156 206.304688 C 840.933594 206.304688 840.371094 205.734375 840.371094 205.007812 C 840.371094 204.289062 840.933594 203.714844 841.660156 203.714844 L 855.632812 203.714844 C 856.359375 203.714844 856.925781 204.289062 856.925781 205.007812 C 856.925781 205.734375 856.359375 206.304688 855.632812 206.304688 Z M 855.632812 210.746094 L 841.660156 210.746094 C 840.933594 210.746094 840.371094 210.171875 840.371094 209.445312 C 840.371094 208.726562 840.933594 208.15625 841.660156 208.15625 L 855.632812 208.15625 C 856.359375 208.15625 856.925781 208.726562 856.925781 209.445312 C 856.925781 210.171875 856.359375 210.746094 855.632812 210.746094 Z M 832.210938 206.378906 C 832.210938 209.042969 830.03125 211.222656 827.367188 211.222656 L 569.160156 211.222656 C 566.496094 211.222656 564.316406 209.042969 564.316406 206.378906 L 564.316406 201.867188 C 564.316406 199.203125 566.496094 197.023438 569.160156 197.023438 L 827.449219 197.023438 C 830.113281 197.023438 832.292969 199.203125 832.292969 201.867188 Z M 522.476562 193.460938 L 522.476562 215.75 L 871.140625 215.75 L 871.140625 193.460938 L 522.476562 193.460938 " fill-opacity="1" fill-rule="nonzero"/><path fill="rgb(21.569824%, 52.159119%, 73.329163%)" d="M 574.652344 343.3125 L 602.273438 347.421875 L 602.273438 344.027344 L 582.246094 336.851562 L 565.769531 321.351562 L 544.042969 317.953125 C 542.105469 317.953125 536.128906 317.628906 530.554688 313.1875 C 523.367188 307.382812 522.640625 299.0625 522.558594 297.695312 L 519.894531 297.695312 C 519.488281 300.675781 519.085938 306.890625 521.832031 313.914062 C 524.011719 319.566406 527.324219 323.28125 529.425781 325.300781 Z M 821.550781 350.085938 L 793.929688 354.210938 L 793.929688 350.820312 L 813.960938 343.625 L 830.4375 328.125 L 852.160156 324.742188 C 854.101562 324.742188 860.078125 324.410156 865.648438 319.96875 C 872.835938 314.15625 873.5625 305.84375 873.644531 304.46875 L 876.472656 304.46875 C 876.875 307.457031 877.28125 313.679688 874.535156 320.707031 C 872.351562 326.355469 869.042969 330.0625 866.941406 332.082031 L 821.550781 350.085938 " fill-opacity="1" fill-rule="nonzero"/><path fill="rgb(100%, 100%, 100%)" d="M 601.707031 347.1875 C 603.082031 347.5 605.101562 347.90625 607.523438 348.066406 C 610.753906 348.308594 614.46875 348.15625 614.550781 347.75 C 614.550781 347.5 613.097656 347.015625 605.988281 346.136719 C 607.523438 345.078125 608.25 344.269531 608.089844 343.867188 C 607.847656 343.222656 605.746094 343.222656 601.707031 343.867188 Z M 522.074219 297.445312 C 523.042969 292.691406 523.367188 290.179688 522.800781 290.027344 C 522.558594 289.9375 522.15625 290.339844 521.589844 291.308594 C 521.589844 287.441406 521.347656 286.546875 521.023438 286.464844 C 520.539062 286.394531 519.8125 288.816406 519.488281 290.429688 C 518.84375 293.328125 519.003906 295.75 519.246094 297.445312 Z M 558.417969 304.558594 C 558.417969 306.890625 561.648438 308.433594 564.800781 310.121094 C 566.171875 306.246094 563.910156 299.382812 563.910156 299.382812 C 561.246094 300.523438 558.417969 302.378906 558.417969 304.558594 Z M 794.496094 350.578125 C 790.539062 349.921875 788.355469 349.921875 788.113281 350.578125 C 787.953125 351.054688 788.679688 351.789062 790.214844 352.835938 C 783.1875 353.71875 781.652344 354.210938 781.652344 354.453125 C 781.652344 354.855469 785.449219 355.015625 788.679688 354.765625 C 791.101562 354.613281 793.121094 354.210938 794.496094 353.878906 Z M 876.957031 304.226562 C 877.199219 302.539062 877.28125 300.117188 876.714844 297.203125 C 876.390625 295.589844 875.664062 293.167969 875.179688 293.257812 C 874.9375 293.257812 874.613281 294.136719 874.613281 298.101562 C 874.046875 297.132812 873.644531 296.726562 873.402344 296.800781 C 872.917969 296.960938 873.160156 299.464844 874.128906 304.226562 Z M 641.203125 133.644531 C 643.058594 130.894531 643.867188 129.363281 643.546875 129.121094 C 643.382812 128.960938 642.898438 129.203125 642.171875 129.769531 C 642.816406 126.699219 642.816406 125.085938 642.414062 124.921875 C 641.769531 124.679688 640.234375 126.941406 637.8125 131.628906 Z M 654.691406 119.027344 C 659.941406 117.332031 662.445312 115.960938 662.363281 115.074219 C 662.28125 114.507812 661.234375 114.183594 659.132812 113.941406 C 663.414062 111.679688 664.222656 110.875 664.140625 110.550781 C 663.898438 110.066406 660.425781 110.632812 657.515625 112.25 C 655.335938 113.460938 653.800781 114.992188 652.914062 116.121094 Z M 649.84375 173.609375 L 665.511719 180.949219 C 667.453125 179.824219 669.308594 178.6875 671.246094 177.476562 C 669.148438 175.386719 665.996094 172.398438 661.878906 169.078125 C 655.417969 163.992188 652.1875 161.410156 648.066406 160.523438 C 639.507812 158.746094 631.429688 164.960938 628.359375 167.625 L 600.660156 183.207031 L 625.292969 207.921875 L 650.734375 226.5625 L 654.691406 221.808594 L 638.941406 201.132812 L 624.808594 178.527344 L 627.875 183.457031 C 635.066406 180.230469 642.65625 176.839844 649.84375 173.609375 Z M 832.292969 306.085938 C 832.292969 306.085938 830.03125 313.035156 831.40625 316.820312 C 834.554688 315.125 837.785156 313.59375 837.785156 311.257812 C 837.785156 309.152344 834.957031 307.296875 832.292969 306.085938 Z M 599.609375 110.953125 C 598.558594 112.566406 597.347656 113.617188 596.460938 114.339844 C 594.925781 114.097656 593.46875 114.90625 592.984375 116.199219 C 592.421875 117.730469 593.226562 119.671875 595.003906 120.316406 C 595.003906 120.722656 595.167969 122.253906 594.035156 123.625 C 593.226562 124.59375 592.257812 124.996094 591.855469 125.160156 C 592.257812 126.613281 592.742188 128.066406 593.148438 129.519531 C 593.957031 129.765625 595.730469 130.242188 597.992188 129.765625 C 599.769531 129.359375 601.0625 128.550781 601.707031 127.988281 L 601.707031 122.980469 C 602.515625 122.496094 603.648438 121.609375 604.535156 120.152344 C 606.636719 116.765625 605.667969 112.808594 604.9375 109.902344 C 604.535156 108.125 603.648438 105.460938 601.628906 102.476562 C 601.789062 103.765625 601.871094 107.398438 599.609375 110.953125 Z M 841.824219 405.226562 L 842.550781 405.226562 L 841.902344 410.230469 Z M 841.824219 405.226562 " fill-opacity="1" fill-rule="nonzero"/><g clip-path="url(#clip-3)"><path fill="rgb(5.879211%, 5.488586%, 4.708862%)" d="M 649.683594 228.910156 L 589.351562 228.910156 L 589.351562 233.667969 L 649.683594 233.667969 Z M 650.570312 234.5625 L 588.382812 234.5625 L 588.382812 227.933594 L 650.570312 227.933594 Z M 879.296875 339.183594 L 876.230469 318.4375 C 875.988281 319.242188 875.746094 320.050781 875.421875 320.859375 C 873.726562 325.144531 871.058594 329.183594 867.75 332.410156 C 868.234375 332.816406 868.636719 333.292969 869.042969 333.863281 C 870.332031 335.640625 871.140625 337.972656 871.304688 340.394531 Z M 870.65625 344.675781 C 867.667969 352.75 854.988281 353.402344 854.585938 359.773438 C 854.179688 365.179688 862.660156 367.28125 862.015625 372.449219 C 861.691406 374.871094 859.511719 377.21875 856.683594 378.90625 C 856.683594 378.988281 856.765625 378.988281 856.765625 379.074219 C 856.847656 380.359375 856.847656 381.660156 856.605469 382.871094 C 856.199219 385.605469 855.230469 388.269531 853.613281 390.691406 L 852.96875 404.742188 L 870.65625 404.742188 Z M 852 410.5625 C 851.917969 410.472656 851.839844 410.320312 851.839844 410.230469 L 852.808594 390.613281 C 852.808594 390.539062 852.808594 390.449219 852.886719 390.378906 C 854.421875 388.027344 855.472656 385.535156 855.796875 382.871094 C 855.957031 381.730469 855.957031 380.601562 855.957031 379.480469 C 852.886719 381.09375 849.171875 381.8125 846.265625 381.003906 C 846.667969 382.214844 846.992188 383.917969 846.589844 386.011719 C 846.183594 388.027344 845.214844 389.480469 844.40625 390.378906 L 842.226562 404.578125 L 842.390625 410.15625 L 848.042969 420.484375 L 869.929688 436.558594 L 874.371094 431.308594 Z M 834.796875 446.488281 L 842.390625 446.488281 L 841.339844 404.417969 L 843.519531 390.046875 C 843.519531 389.976562 843.601562 389.886719 843.601562 389.804688 C 844.328125 388.996094 845.214844 387.625 845.621094 385.769531 C 846.023438 383.75 845.621094 382.0625 845.214844 381.003906 C 845.136719 380.925781 845.214844 380.761719 845.214844 380.691406 C 845.054688 380.601562 844.894531 380.519531 844.730469 380.449219 C 840.613281 378.269531 842.46875 373.496094 837.945312 367.28125 C 836.25 364.949219 834.3125 363.332031 832.375 362.121094 L 824.703125 403.207031 Z M 794.980469 353.644531 L 822.117188 349.609375 C 822.277344 349.609375 822.441406 349.609375 822.519531 349.769531 C 827.367188 345.078125 837.625 340.558594 836.976562 334.582031 C 836.65625 331.757812 834.070312 329.988281 831.484375 328.285156 C 831.484375 328.285156 831.484375 328.375 831.40625 328.375 L 814.929688 343.867188 C 814.847656 343.957031 814.847656 343.957031 814.765625 343.957031 L 795.058594 351.054688 L 795.058594 353.644531 Z M 794.011719 353.804688 L 794.011719 351.132812 C 789.164062 350.328125 788.597656 350.890625 788.519531 350.890625 C 788.519531 350.890625 788.597656 351.382812 790.457031 352.667969 C 790.617188 352.75 790.699219 353 790.617188 353.152344 C 790.539062 353.3125 790.457031 353.476562 790.214844 353.476562 C 786.417969 353.960938 784.320312 354.363281 783.1875 354.523438 C 784.480469 354.613281 786.5 354.613281 788.597656 354.523438 C 790.457031 354.523438 792.316406 354.210938 794.011719 353.804688 Z M 832.617188 306.730469 C 832.132812 308.265625 830.921875 313.109375 831.726562 316.175781 L 831.96875 316.105469 C 834.796875 314.648438 837.460938 313.1875 837.460938 311.332031 C 837.382812 309.878906 835.683594 308.265625 832.617188 306.730469 Z M 683.765625 367.773438 L 781.574219 353.476562 C 781.816406 353.476562 782.058594 353.644531 782.058594 353.878906 L 782.058594 354.046875 C 782.945312 353.71875 784.882812 353.402344 789.082031 352.835938 C 787.953125 351.941406 787.550781 351.296875 787.792969 350.648438 C 788.035156 349.921875 789.082031 349.4375 794.496094 350.328125 L 814.28125 343.148438 L 830.597656 327.808594 C 828.011719 326.195312 825.75 324.582031 825.914062 322.320312 C 826.074219 320.140625 828.496094 318.527344 831.164062 317.144531 C 831.082031 317.074219 831 317.074219 831 316.910156 C 829.628906 312.945312 831.726562 306.246094 831.890625 305.84375 C 831.726562 305.769531 831.566406 305.679688 831.40625 305.609375 C 831.808594 303.75 832.292969 301.804688 832.695312 299.957031 C 843.921875 298.746094 848.6875 301.242188 850.871094 304.066406 C 855.230469 309.804688 849.980469 318.121094 852.484375 324.175781 L 852.644531 324.175781 C 855.472656 324.175781 860.882812 323.53125 865.8125 319.496094 C 872.433594 314.15625 873.484375 306.648438 873.644531 304.308594 C 872.351562 298.171875 872.515625 296.890625 873 296.484375 L 866.617188 252.960938 L 845.78125 228.175781 L 679.40625 252.484375 L 671.652344 281.703125 C 671.570312 281.953125 671.410156 282.027344 671.246094 282.027344 L 671.167969 282.027344 Z M 671.003906 280.894531 L 678.4375 252.800781 L 667.128906 254.414062 Z M 679.726562 251.75 L 845.214844 227.53125 L 844.328125 226.488281 L 781.734375 181.84375 L 761.140625 181.84375 L 680.210938 249.902344 Z M 762.1875 180.949219 L 780.359375 180.949219 L 772.851562 175.628906 C 771.71875 175.539062 770.75 175.136719 769.78125 174.578125 Z M 862.742188 225.917969 L 846.992188 228.265625 L 866.539062 251.515625 Z M 783.269531 181.84375 L 844.894531 225.753906 L 844.972656 225.84375 L 846.265625 227.371094 L 863.066406 224.949219 C 863.144531 224.949219 863.308594 224.949219 863.386719 225.035156 C 863.46875 225.109375 863.550781 225.191406 863.550781 225.351562 L 867.585938 252.800781 L 869.929688 255.625 C 870.089844 255.789062 870.089844 256.117188 869.847656 256.273438 C 869.6875 256.433594 869.363281 256.433594 869.203125 256.191406 L 867.828125 254.503906 L 870.738281 274.285156 L 870.738281 181.84375 Z M 873.5625 297.609375 C 873.5625 298.171875 873.644531 299.789062 874.453125 303.90625 L 876.472656 303.90625 C 876.714844 301.734375 876.632812 299.554688 876.148438 297.445312 C 875.824219 296.082031 875.421875 294.871094 875.179688 294.214844 C 875.097656 294.710938 874.9375 295.832031 875.019531 298.253906 C 875.019531 298.503906 874.855469 298.65625 874.695312 298.65625 C 874.535156 298.746094 874.292969 298.65625 874.210938 298.414062 C 873.96875 298.101562 873.726562 297.769531 873.5625 297.609375 Z M 867.101562 331.757812 C 870.332031 328.617188 872.917969 324.742188 874.535156 320.542969 C 875.097656 319 875.582031 317.546875 875.90625 316.101562 L 875.90625 316.015625 C 876.957031 311.664062 876.875 307.699219 876.550781 304.875 L 874.613281 304.875 C 874.371094 307.625 873.078125 315.054688 866.457031 320.300781 C 861.449219 324.339844 855.957031 325.058594 852.96875 325.144531 C 853.210938 325.621094 853.535156 326.105469 853.9375 326.511719 C 857.574219 330.546875 862.984375 328.851562 867.101562 331.757812 C 867.023438 331.757812 867.101562 331.757812 867.101562 331.757812 Z M 732.628906 399.492188 L 605.183594 399.492188 L 605.183594 412.25 L 711.871094 412.25 C 712.113281 412.25 712.355469 412.492188 712.355469 412.742188 L 712.355469 433.402344 L 732.628906 433.402344 Z M 711.46875 413.21875 L 584.019531 413.21875 L 584.019531 447.125 L 711.46875 447.125 Z M 571.503906 396.433594 L 563.828125 355.332031 C 561.890625 356.542969 559.953125 358.15625 558.257812 360.507812 C 553.734375 366.722656 555.59375 371.40625 551.472656 373.660156 C 551.3125 373.738281 551.148438 373.828125 550.988281 373.902344 C 550.988281 373.988281 551.070312 374.144531 550.988281 374.230469 C 550.585938 375.273438 550.179688 376.96875 550.585938 378.988281 C 550.988281 380.925781 551.875 382.214844 552.605469 383.023438 C 552.683594 383.113281 552.683594 383.183594 552.683594 383.273438 L 554.863281 397.644531 L 554.703125 403.53125 L 554.703125 403.609375 L 553.816406 439.699219 L 561.40625 439.699219 Z M 553.816406 403.296875 L 553.976562 397.644531 L 551.796875 383.515625 C 550.988281 382.621094 550.019531 381.167969 549.617188 379.148438 C 549.210938 377.128906 549.535156 375.355469 549.9375 374.144531 C 547.03125 374.949219 543.316406 374.230469 540.246094 372.617188 C 540.164062 373.738281 540.246094 374.871094 540.40625 376.007812 C 540.8125 378.671875 541.78125 381.167969 543.316406 383.515625 C 543.394531 383.589844 543.394531 383.675781 543.394531 383.75 L 544.367188 403.367188 C 544.367188 403.53125 544.285156 403.609375 544.203125 403.699219 L 521.75 424.359375 L 526.191406 429.605469 L 548.082031 413.546875 Z M 541.863281 404.742188 L 543.476562 403.207031 L 542.589844 383.917969 C 540.972656 381.496094 540.003906 378.90625 539.601562 376.082031 C 539.4375 374.871094 539.359375 373.585938 539.4375 372.285156 C 539.4375 372.214844 539.4375 372.125 539.519531 372.125 C 536.691406 370.429688 534.511719 368.085938 534.1875 365.664062 C 533.542969 360.507812 542.023438 358.398438 541.621094 353 C 541.136719 346.378906 527.484375 345.886719 525.222656 336.761719 C 524.417969 333.371094 525.304688 329.585938 527.164062 327.003906 C 527.566406 326.429688 528.050781 325.953125 528.453125 325.550781 C 526.355469 323.441406 524.496094 321.019531 522.960938 318.4375 L 522.960938 404.667969 L 541.863281 404.667969 Z M 521.671875 313.753906 C 523.285156 317.953125 525.871094 321.828125 529.101562 324.984375 L 529.101562 325.058594 C 533.21875 322.160156 538.632812 323.773438 542.183594 319.808594 C 542.589844 319.40625 542.910156 318.929688 543.152344 318.4375 C 540.164062 318.355469 534.671875 317.628906 529.667969 313.59375 C 523.125 308.34375 521.832031 300.925781 521.507812 298.171875 L 519.570312 298.171875 C 519.246094 301.886719 519.246094 307.539062 521.671875 313.753906 Z M 519.652344 297.203125 L 521.671875 297.203125 C 522.558594 293.003906 522.640625 291.480469 522.558594 290.90625 C 522.398438 291.074219 522.234375 291.308594 521.992188 291.792969 C 521.914062 291.957031 521.671875 292.046875 521.507812 292.046875 C 521.347656 291.957031 521.1875 291.792969 521.1875 291.640625 C 521.1875 289.292969 521.105469 288.160156 521.023438 287.605469 C 520.703125 288.25 520.296875 289.460938 520.054688 290.832031 C 519.570312 292.851562 519.410156 295.023438 519.652344 297.203125 Z M 522.074219 289.863281 L 522.074219 290.097656 L 522.15625 290.027344 C 522.074219 290.027344 522.074219 289.9375 522.074219 289.863281 Z M 563.585938 299.957031 C 560.4375 301.484375 558.824219 303.097656 558.824219 304.558594 C 558.824219 306.414062 561.488281 307.859375 564.316406 309.3125 L 564.558594 309.402344 C 565.285156 306.328125 564.070312 301.484375 563.585938 299.957031 Z M 564.878906 321.585938 C 562.296875 323.28125 559.710938 325.058594 559.386719 327.882812 C 558.742188 333.777344 569 338.304688 573.84375 343.058594 C 573.925781 342.980469 574.085938 342.90625 574.25 342.90625 L 601.386719 346.945312 L 601.386719 344.433594 L 581.679688 337.328125 C 581.597656 337.328125 581.597656 337.253906 581.515625 337.253906 L 565.042969 321.753906 C 564.878906 321.667969 564.878906 321.585938 564.878906 321.585938 Z M 602.191406 344.433594 L 602.191406 347.097656 C 603.96875 347.5 605.746094 347.75 607.605469 347.90625 C 609.703125 348.066406 611.722656 348.066406 613.015625 347.90625 C 611.886719 347.664062 609.867188 347.347656 605.988281 346.855469 C 605.828125 346.855469 605.667969 346.695312 605.585938 346.539062 C 605.503906 346.378906 605.585938 346.136719 605.746094 346.046875 C 607.605469 344.765625 607.683594 344.269531 607.683594 344.269531 C 607.605469 344.117188 607.039062 343.625 602.191406 344.433594 Z M 568.03125 373.019531 L 570.210938 384.558594 L 593.632812 384.558594 C 596.78125 384.558594 599.449219 381.972656 599.449219 378.746094 C 599.449219 375.515625 596.863281 372.933594 593.632812 372.933594 L 568.03125 372.933594 Z M 665.835938 180.949219 Z M 633.691406 180.949219 L 665.269531 180.949219 L 649.84375 173.679688 Z M 773.898438 59.203125 C 773.898438 54.035156 769.699219 49.839844 764.53125 49.839844 C 762.671875 49.839844 760.816406 50.402344 759.28125 51.453125 C 756.695312 53.230469 755.164062 56.054688 755.164062 59.203125 C 755.164062 64.371094 759.363281 68.566406 764.53125 68.566406 C 769.699219 68.566406 773.898438 64.371094 773.898438 59.203125 Z M 880.269531 339.515625 C 880.269531 339.75 880.105469 339.992188 879.863281 339.992188 L 871.625 341.203125 L 871.625 405.144531 C 871.625 405.386719 871.382812 405.628906 871.140625 405.628906 L 852.96875 405.628906 L 852.726562 409.988281 L 875.339844 430.816406 C 875.503906 430.980469 875.503906 431.308594 875.339844 431.464844 L 875.261719 431.550781 L 878.25 435.097656 C 872.191406 444.785156 868.636719 449.386719 867.507812 448.910156 C 866.617188 448.507812 867.34375 444.703125 869.769531 437.519531 C 869.6875 437.519531 869.6875 437.519531 869.605469 437.4375 L 847.316406 421.058594 C 847.234375 421.058594 847.234375 420.96875 847.152344 420.886719 L 842.308594 412.007812 L 843.195312 446.890625 C 843.195312 447.054688 843.117188 447.125 843.035156 447.207031 C 842.953125 447.296875 842.792969 447.367188 842.710938 447.367188 L 842.632812 447.367188 L 841.742188 451.734375 C 828.417969 452.777344 821.632812 452.777344 821.472656 451.734375 C 821.308594 450.839844 825.429688 449.3125 833.828125 447.054688 L 824.378906 405.628906 L 733.597656 405.628906 L 733.597656 433.804688 C 733.597656 434.046875 733.355469 434.289062 733.113281 434.289062 L 712.355469 434.289062 L 712.355469 447.53125 C 712.355469 447.773438 712.113281 448.015625 711.871094 448.015625 L 583.535156 448.015625 C 583.292969 448.015625 583.050781 447.773438 583.050781 447.53125 L 583.050781 412.742188 C 583.050781 412.492188 583.292969 412.25 583.535156 412.25 L 604.292969 412.25 L 604.292969 405.628906 L 570.292969 405.628906 L 562.296875 440.261719 C 570.613281 442.523438 574.734375 444.066406 574.652344 444.945312 C 574.492188 445.996094 567.707031 445.996094 554.378906 444.945312 L 553.492188 440.59375 L 553.410156 440.59375 C 553.25 440.59375 553.167969 440.503906 553.089844 440.433594 C 553.007812 440.34375 552.925781 440.191406 552.925781 440.101562 L 553.816406 405.226562 L 548.96875 414.105469 C 548.96875 414.195312 548.886719 414.195312 548.808594 414.265625 L 526.515625 430.65625 C 526.515625 430.65625 526.4375 430.65625 526.355469 430.746094 C 528.777344 437.921875 529.503906 441.714844 528.617188 442.121094 C 527.566406 442.683594 523.933594 438.082031 517.875 428.324219 L 520.863281 424.761719 L 520.78125 424.691406 C 520.621094 424.519531 520.621094 424.199219 520.78125 424.042969 L 540.730469 405.628906 L 522.398438 405.628906 C 522.15625 405.628906 521.914062 405.386719 521.914062 405.144531 L 521.914062 318.285156 C 521.914062 318.03125 522.15625 317.789062 522.398438 317.789062 L 522.476562 317.789062 C 521.832031 316.578125 521.1875 315.296875 520.703125 313.996094 C 518.117188 307.457031 518.199219 301.484375 518.683594 297.605469 C 518.359375 295.183594 518.441406 292.851562 519.003906 290.503906 C 519.972656 286.0625 520.78125 286.144531 521.023438 286.230469 C 521.507812 286.304688 521.832031 286.636719 521.914062 289.695312 L 521.914062 181.351562 C 521.914062 181.109375 522.15625 180.875 522.398438 180.875 L 597.671875 180.875 C 597.914062 180.875 598.15625 181.109375 598.15625 181.351562 C 598.15625 181.59375 597.914062 181.84375 597.671875 181.84375 L 522.882812 181.84375 L 522.882812 289.777344 C 523.527344 290.027344 523.851562 290.746094 522.398438 297.695312 C 522.558594 299.957031 523.609375 307.539062 530.230469 312.875 C 535.160156 316.820312 540.570312 317.476562 543.394531 317.546875 L 543.558594 317.546875 C 546.0625 311.492188 540.894531 303.1875 545.171875 297.445312 C 547.355469 294.621094 552.117188 292.042969 563.34375 293.328125 C 563.75 295.183594 564.234375 297.132812 564.636719 298.980469 C 564.476562 299.0625 564.316406 299.148438 564.152344 299.222656 C 564.316406 299.625 566.414062 306.328125 565.042969 310.28125 C 565.042969 310.363281 564.960938 310.453125 564.878906 310.523438 C 567.464844 311.898438 569.886719 313.511719 570.128906 315.699219 C 570.292969 317.953125 568.03125 319.496094 565.445312 321.179688 L 581.757812 336.519531 L 601.546875 343.714844 C 607.039062 342.816406 608.007812 343.3125 608.25 344.027344 C 608.492188 344.59375 608.089844 345.238281 606.957031 346.210938 C 614.875 347.257812 614.792969 347.664062 614.792969 348.15625 C 614.792969 348.632812 614.308594 348.875 612.046875 348.960938 L 610.351562 348.960938 C 609.300781 348.960938 608.25 348.960938 607.28125 348.875 C 605.34375 348.710938 603.324219 348.46875 601.386719 347.992188 L 574.328125 343.957031 C 575.539062 345.328125 576.1875 346.695312 575.945312 348.066406 C 575.378906 351.625 569.886719 351.789062 564.394531 354.929688 C 564.394531 355.015625 564.476562 355.015625 564.476562 355.089844 L 567.707031 372.214844 L 593.46875 372.214844 C 597.1875 372.214844 600.175781 375.199219 600.175781 378.90625 C 600.175781 382.621094 597.1875 385.605469 593.46875 385.605469 L 570.210938 385.605469 L 572.230469 396.433594 L 572.230469 396.59375 L 570.292969 404.820312 L 604.050781 404.820312 L 604.050781 399.171875 C 604.050781 398.929688 604.292969 398.6875 604.535156 398.6875 L 733.113281 398.6875 C 733.355469 398.6875 733.597656 398.929688 733.597656 399.171875 L 733.597656 404.820312 L 824.214844 404.820312 L 823.894531 403.367188 L 823.894531 403.207031 L 831.648438 361.878906 C 831.648438 361.789062 831.648438 361.789062 831.726562 361.71875 C 826.234375 358.5625 820.742188 358.398438 820.179688 354.855469 C 819.9375 353.402344 820.582031 352.03125 821.792969 350.730469 L 794.738281 354.765625 C 792.800781 355.257812 790.859375 355.492188 788.839844 355.664062 C 788.035156 355.734375 786.824219 355.734375 785.691406 355.734375 C 783.835938 355.734375 781.976562 355.664062 781.574219 355.257812 C 781.492188 355.171875 781.410156 355.015625 781.410156 354.855469 C 781.410156 354.765625 781.410156 354.613281 781.492188 354.523438 L 683.605469 368.8125 L 683.523438 368.8125 C 683.441406 368.8125 683.363281 368.8125 683.28125 368.742188 C 683.199219 368.652344 683.121094 368.582031 683.121094 368.410156 L 666.886719 258.695312 L 551.632812 258.695312 C 551.390625 258.695312 551.148438 258.453125 551.148438 258.210938 C 551.148438 257.976562 551.390625 257.734375 551.632812 257.734375 L 666.726562 257.734375 L 666.160156 254.101562 C 666.160156 253.851562 666.320312 253.609375 666.5625 253.609375 L 678.757812 251.832031 L 679.40625 249.5 C 679.40625 249.410156 679.484375 249.328125 679.566406 249.257812 L 759.765625 181.84375 L 685.460938 181.84375 C 685.382812 181.84375 685.300781 181.84375 685.300781 181.753906 C 684.25 182.652344 678.273438 182.964844 667.453125 182.722656 L 666.5625 181.683594 C 666.480469 181.753906 666.402344 181.753906 666.320312 181.753906 L 631.753906 181.753906 L 628.683594 183.128906 L 639.425781 200.414062 L 655.175781 221.070312 L 655.175781 221.152344 C 661.394531 217.769531 664.867188 216.46875 665.433594 217.277344 C 666.160156 218.246094 662.605469 222.523438 654.769531 229.878906 L 651.136719 226.402344 C 651.054688 226.488281 650.894531 226.5625 650.8125 226.5625 C 650.734375 226.5625 650.652344 226.5625 650.570312 226.488281 L 625.128906 207.75 L 600.417969 183.054688 C 600.253906 182.894531 600.253906 182.5625 600.417969 182.402344 C 600.578125 182.246094 600.902344 182.246094 601.0625 182.402344 L 625.695312 207.113281 L 650.734375 225.511719 L 654.207031 221.402344 L 638.617188 200.96875 L 624.484375 178.285156 C 624.324219 178.050781 624.402344 177.808594 624.644531 177.644531 C 624.886719 177.476562 625.128906 177.558594 625.292969 177.808594 L 628.199219 182.402344 C 628.199219 182.402344 628.28125 182.320312 628.359375 182.320312 L 631.511719 180.949219 L 649.84375 172.710938 C 650.007812 172.632812 650.085938 172.632812 650.25 172.710938 L 665.753906 179.980469 L 670.761719 177 C 667.9375 174.175781 664.949219 171.5 661.878906 169.078125 C 655.5 163.992188 652.269531 161.5 648.308594 160.601562 C 640.394531 158.90625 632.804688 164.324219 629.007812 167.625 C 628.847656 167.789062 628.523438 167.789062 628.359375 167.554688 C 628.199219 167.382812 628.199219 167.0625 628.441406 166.90625 C 632.398438 163.429688 640.316406 157.9375 648.550781 159.640625 C 652.753906 160.523438 655.984375 163.113281 662.523438 168.273438 C 665.835938 170.855469 668.984375 173.679688 671.894531 176.667969 C 671.972656 176.75 672.054688 176.910156 672.054688 177.074219 C 679.808594 178.6875 684.25 179.980469 685.460938 180.949219 C 685.542969 180.875 685.625 180.785156 685.785156 180.785156 L 761.21875 180.785156 L 769.539062 173.769531 C 769.136719 173.4375 768.730469 173.035156 768.40625 172.632812 C 767.035156 170.855469 766.632812 168.433594 767.359375 166.34375 C 767.921875 164.726562 769.054688 163.589844 770.105469 162.710938 C 770.589844 162.21875 771.074219 161.8125 771.476562 161.328125 C 772.527344 159.957031 773.171875 158.179688 773.335938 156.25 L 773.335938 156.164062 C 769.78125 155.515625 767.117188 152.449219 767.117188 148.742188 C 767.117188 144.707031 770.347656 141.386719 774.304688 141.226562 L 774.304688 63.40625 C 772.6875 66.957031 769.136719 69.460938 764.933594 69.460938 C 759.28125 69.460938 754.679688 64.855469 754.679688 59.203125 C 754.679688 57.1875 755.242188 55.332031 756.292969 53.714844 L 664.058594 111.441406 C 663.492188 111.925781 662.445312 112.570312 660.503906 113.621094 C 661.960938 113.941406 662.605469 114.347656 662.765625 114.992188 C 662.929688 115.882812 662.039062 117.011719 654.933594 119.433594 L 644.109375 129.28125 C 644.109375 129.84375 643.546875 130.980469 641.605469 133.878906 C 641.527344 134.050781 641.363281 134.050781 641.203125 134.050781 C 641.121094 134.050781 641.042969 134.050781 640.960938 133.960938 C 640.71875 133.808594 640.71875 133.558594 640.878906 133.316406 C 642.253906 131.296875 642.816406 130.246094 643.058594 129.683594 C 642.898438 129.769531 642.738281 129.925781 642.496094 130.085938 C 642.332031 130.175781 642.171875 130.246094 642.011719 130.085938 C 641.847656 130.011719 641.769531 129.769531 641.769531 129.605469 C 642.332031 126.617188 642.332031 125.648438 642.253906 125.328125 C 641.929688 125.570312 640.878906 126.699219 638.214844 131.699219 C 638.132812 131.941406 637.8125 132.03125 637.570312 131.863281 C 637.324219 131.789062 637.246094 131.457031 637.40625 131.222656 C 641.042969 124.359375 641.929688 124.035156 642.574219 124.277344 C 643.140625 124.519531 643.464844 125.328125 642.816406 128.554688 C 643.058594 128.472656 643.222656 128.394531 643.464844 128.394531 L 654.367188 118.464844 C 654.367188 118.464844 654.449219 118.464844 654.449219 118.382812 C 654.449219 118.382812 654.527344 118.382812 654.527344 118.304688 C 661.796875 115.882812 661.878906 114.910156 661.878906 114.832031 C 661.878906 114.832031 661.71875 114.347656 659.050781 114.023438 C 658.890625 114.023438 658.730469 113.863281 658.648438 113.621094 C 658.648438 113.460938 658.730469 113.214844 658.890625 113.136719 C 659.292969 112.890625 659.699219 112.730469 660.101562 112.488281 L 663.332031 110.46875 C 662.28125 110.550781 659.941406 111.117188 657.679688 112.328125 C 655.984375 113.296875 654.527344 114.507812 653.238281 116.121094 C 653.074219 116.285156 652.753906 116.363281 652.589844 116.203125 C 652.429688 116.042969 652.347656 115.71875 652.511719 115.558594 C 653.882812 113.863281 655.417969 112.570312 657.273438 111.601562 C 659.941406 110.148438 663.171875 109.421875 664.140625 109.746094 C 664.222656 109.828125 664.300781 109.828125 664.382812 109.90625 L 757.019531 51.9375 C 757.101562 51.859375 757.261719 51.859375 757.425781 51.859375 C 757.828125 51.457031 758.3125 51.050781 758.796875 50.726562 C 760.492188 49.597656 762.511719 48.953125 764.53125 48.953125 C 769.136719 48.953125 773.09375 52.019531 774.304688 56.21875 C 774.546875 56.21875 774.789062 56.460938 774.789062 56.703125 L 774.789062 141.382812 C 778.664062 141.714844 781.816406 144.945312 781.816406 148.894531 C 781.816406 152.613281 779.148438 155.675781 775.597656 156.320312 L 775.597656 156.5625 C 775.433594 159.074219 774.546875 161.496094 773.171875 163.183594 C 772.6875 163.828125 772.042969 164.394531 771.476562 164.886719 C 770.589844 165.695312 769.78125 166.410156 769.457031 167.460938 C 769.054688 168.671875 769.296875 170.132812 770.105469 171.183594 C 771.152344 172.554688 772.851562 173.203125 774.546875 172.796875 C 776.324219 172.394531 777.613281 171.015625 778.019531 169.238281 C 778.179688 168.519531 778.90625 168.027344 779.632812 168.1875 C 780.359375 168.359375 780.847656 169.078125 780.683594 169.804688 C 780.039062 172.628906 777.9375 174.816406 775.113281 175.382812 C 774.871094 175.453125 774.625 175.453125 774.382812 175.535156 L 781.894531 180.871094 L 871.058594 180.871094 C 871.304688 180.871094 871.546875 181.105469 871.546875 181.347656 L 871.546875 276.945312 C 871.546875 277.179688 871.382812 277.421875 871.058594 277.421875 L 873.886719 296.796875 C 873.96875 296.886719 873.96875 296.886719 874.046875 296.957031 C 874.128906 293.496094 874.453125 293.164062 875.019531 293.089844 C 875.746094 293.003906 876.390625 294.464844 877.035156 297.363281 C 877.523438 299.710938 877.601562 302.042969 877.359375 304.464844 C 877.765625 307.453125 877.84375 311.570312 876.792969 316.261719 Z M 573.765625 203.078125 C 573.765625 201.777344 572.714844 200.65625 571.339844 200.65625 C 570.046875 200.65625 568.917969 201.695312 568.917969 203.078125 C 568.917969 204.359375 569.96875 205.5 571.339844 205.5 C 572.714844 205.5 573.765625 204.449219 573.765625 203.078125 Z M 574.652344 203.078125 C 574.652344 203.714844 574.492188 204.289062 574.167969 204.765625 L 576.914062 207.023438 C 577.074219 207.1875 577.15625 207.515625 576.996094 207.679688 C 576.914062 207.75 576.753906 207.832031 576.671875 207.832031 C 576.589844 207.832031 576.429688 207.832031 576.347656 207.75 L 573.601562 205.5 C 573.039062 206.0625 572.230469 206.378906 571.339844 206.378906 C 569.484375 206.378906 568.03125 204.925781 568.03125 203.078125 C 568.03125 201.21875 569.484375 199.757812 571.339844 199.757812 C 573.199219 199.757812 574.652344 201.292969 574.652344 203.078125 Z M 589.269531 242.546875 L 630.785156 242.546875 L 630.785156 237.792969 L 589.269531 237.792969 Z M 588.382812 236.894531 L 631.753906 236.894531 L 631.753906 243.515625 L 588.382812 243.515625 Z M 604.535156 109.902344 C 604.050781 107.882812 603.242188 105.867188 602.191406 104.007812 C 602.113281 105.945312 601.628906 108.613281 600.011719 111.113281 C 599.125 112.484375 598.074219 113.617188 596.703125 114.585938 C 596.621094 114.667969 596.460938 114.667969 596.378906 114.667969 C 595.085938 114.425781 593.792969 115.148438 593.390625 116.28125 C 593.148438 116.925781 593.148438 117.652344 593.472656 118.300781 C 593.792969 119.027344 594.441406 119.589844 595.167969 119.832031 C 595.328125 119.914062 595.488281 120.074219 595.488281 120.238281 C 595.570312 120.882812 595.570312 122.414062 594.441406 123.871094 C 593.792969 124.675781 593.066406 125.164062 592.421875 125.402344 L 593.550781 129.117188 C 594.601562 129.4375 596.136719 129.679688 597.914062 129.277344 C 599.125 129.035156 600.253906 128.472656 601.304688 127.746094 L 601.304688 122.902344 C 601.304688 122.742188 601.386719 122.578125 601.546875 122.496094 C 602.679688 121.769531 603.566406 120.882812 604.210938 119.832031 C 606.152344 116.605469 605.183594 112.726562 604.535156 109.902344 Z M 581.839844 115.878906 C 581.113281 109.417969 585.960938 105.140625 586.445312 104.734375 C 587.007812 100.214844 590.480469 96.824219 594.683594 96.421875 C 598.15625 96.097656 601.546875 97.953125 603.324219 101.183594 C 603.648438 102.878906 603.890625 104.492188 604.210938 106.191406 C 604.695312 107.402344 605.101562 108.53125 605.425781 109.824219 C 606.152344 112.808594 607.121094 116.847656 604.9375 120.480469 C 604.210938 121.609375 603.324219 122.578125 602.191406 123.304688 L 602.191406 128.066406 C 602.191406 128.226562 602.113281 128.308594 602.03125 128.390625 C 600.902344 129.277344 599.527344 129.921875 598.15625 130.242188 C 597.429688 130.414062 596.703125 130.484375 596.054688 130.484375 C 594.84375 130.484375 593.792969 130.242188 593.066406 130.007812 C 592.90625 129.921875 592.824219 129.839844 592.742188 129.679688 L 591.9375 126.9375 C 586.445312 125.484375 582.488281 121.042969 581.839844 115.878906 Z M 648.550781 373.015625 L 612.773438 373.015625 C 609.625 373.015625 606.957031 375.597656 606.957031 378.828125 C 606.957031 382.054688 609.542969 384.632812 612.773438 384.632812 L 648.550781 384.632812 C 651.703125 384.632812 654.367188 382.054688 654.367188 378.828125 C 654.367188 375.597656 651.78125 373.015625 648.550781 373.015625 Z M 612.773438 372.117188 L 648.550781 372.117188 C 652.269531 372.117188 655.257812 375.105469 655.257812 378.828125 C 655.257812 382.53125 652.269531 385.527344 648.550781 385.527344 L 612.773438 385.527344 C 609.058594 385.527344 606.070312 382.53125 606.070312 378.828125 C 606.070312 375.105469 609.058594 372.117188 612.773438 372.117188 Z M 696.851562 433.796875 L 620.042969 433.796875 L 620.042969 435.414062 L 696.929688 435.414062 L 696.929688 433.796875 Z M 688.128906 429.125 L 620.042969 429.125 L 620.042969 431.375 L 688.128906 431.375 Z M 696.851562 424.917969 L 620.042969 424.917969 L 620.042969 426.863281 L 696.851562 426.863281 Z M 601.628906 430.738281 L 593.714844 439.691406 C 594.359375 440.023438 595.003906 440.183594 595.730469 440.183594 L 607.121094 440.183594 C 608.089844 440.183594 608.898438 439.851562 609.625 439.378906 Z M 592.824219 421.125 C 591.9375 421.929688 591.289062 423.140625 591.289062 424.441406 L 591.289062 435.816406 C 591.289062 437.269531 592.015625 438.570312 593.148438 439.378906 L 601.222656 430.246094 Z M 610.109375 438.972656 C 610.996094 438.167969 611.480469 437.027344 611.480469 435.742188 L 611.480469 424.351562 C 611.480469 423.070312 610.914062 421.859375 610.027344 421.050781 L 602.03125 430.09375 Z M 593.308594 420.71875 C 594.035156 420.316406 594.84375 420 595.652344 420 L 607.039062 420 C 607.925781 420 608.734375 420.242188 609.460938 420.71875 L 601.546875 429.6875 L 593.308594 420.71875 " fill-opacity="1" fill-rule="nonzero"/></g><path fill="rgb(21.569824%, 52.159119%, 73.329163%)" d="M 597.992188 129.769531 C 595.8125 130.246094 594.035156 129.84375 593.148438 129.523438 C 590.804688 133.074219 588.222656 138.160156 587.089844 144.617188 C 583.535156 164.398438 596.539062 179.980469 598.800781 182.722656 C 601.707031 182.964844 608.089844 183.128906 614.953125 179.738281 C 623.597656 175.539062 627.714844 168.59375 629.089844 166.101562 L 615.277344 149.390625 C 617.214844 150.027344 622.382812 151.480469 628.199219 149.390625 C 638.539062 145.667969 641.121094 134.363281 641.285156 133.644531 L 637.8125 131.699219 C 636.839844 133 633.691406 137.109375 627.957031 138.5625 C 624.566406 139.457031 621.738281 139.054688 620.042969 138.722656 C 624.160156 135.824219 628.683594 132.839844 633.691406 129.84375 C 641.121094 125.488281 648.148438 121.9375 654.691406 119.027344 L 652.914062 116.203125 L 601.707031 127.992188 C 600.980469 128.472656 599.769531 129.363281 597.992188 129.769531 Z M 619.71875 282.027344 L 611.078125 291.792969 C 611.722656 292.117188 612.449219 292.359375 613.257812 292.359375 L 625.613281 292.359375 C 626.664062 292.359375 627.554688 292.046875 628.359375 291.480469 Z M 610.109375 271.609375 C 609.058594 272.507812 608.414062 273.792969 608.414062 275.246094 L 608.414062 287.605469 C 608.414062 289.21875 609.21875 290.582031 610.429688 291.480469 L 619.152344 281.550781 Z M 628.925781 291.078125 C 629.894531 290.179688 630.460938 288.96875 630.460938 287.605469 L 630.460938 275.246094 C 630.460938 273.792969 629.816406 272.582031 628.847656 271.699219 L 620.203125 281.550781 Z M 619.71875 280.984375 L 628.359375 271.207031 C 627.632812 270.722656 626.664062 270.398438 625.695312 270.398438 L 613.339844 270.398438 C 612.371094 270.398438 611.480469 270.722656 610.753906 271.207031 Z M 590.160156 282.195312 L 581.597656 291.957031 C 582.246094 292.289062 582.972656 292.519531 583.777344 292.519531 L 596.136719 292.519531 C 597.1875 292.519531 598.074219 292.199219 598.882812 291.640625 Z M 580.628906 271.773438 C 579.578125 272.667969 578.933594 273.953125 578.933594 275.40625 L 578.933594 287.757812 C 578.933594 289.371094 579.742188 290.746094 580.953125 291.640625 L 589.675781 281.703125 Z M 599.449219 291.238281 C 600.417969 290.339844 600.980469 289.128906 600.980469 287.757812 L 600.980469 275.40625 C 600.980469 273.953125 600.335938 272.742188 599.367188 271.863281 L 590.726562 281.703125 Z M 590.160156 281.144531 L 598.800781 271.371094 C 598.074219 270.894531 597.105469 270.5625 596.136719 270.5625 L 583.777344 270.5625 C 582.808594 270.5625 581.921875 270.894531 581.195312 271.371094 Z M 560.597656 282.027344 L 551.957031 291.792969 C 552.605469 292.117188 553.332031 292.359375 554.136719 292.359375 L 566.496094 292.359375 C 567.546875 292.359375 568.433594 292.046875 569.242188 291.480469 Z M 551.070312 271.613281 C 550.019531 272.507812 549.371094 273.792969 549.371094 275.246094 L 549.371094 287.605469 C 549.371094 289.21875 550.179688 290.582031 551.390625 291.480469 L 560.113281 281.550781 Z M 569.886719 291.148438 C 570.855469 290.269531 571.421875 289.058594 571.421875 287.675781 L 571.421875 275.332031 C 571.421875 273.878906 570.777344 272.667969 569.804688 271.773438 L 561.082031 281.550781 Z M 560.597656 281.058594 L 569.242188 271.296875 C 568.515625 270.804688 567.546875 270.488281 566.574219 270.488281 L 554.21875 270.488281 C 553.25 270.488281 552.359375 270.804688 551.632812 271.296875 Z M 565.285156 222.769531 C 557.691406 222.769531 551.632812 228.910156 551.632812 236.410156 C 551.632812 243.917969 557.773438 250.0625 565.285156 250.0625 C 572.792969 250.0625 578.933594 243.917969 578.933594 236.410156 C 578.933594 228.910156 572.875 222.769531 565.285156 222.769531 Z M 776.242188 274.121094 C 776.242188 282.914062 769.136719 290.027344 760.332031 290.027344 C 751.527344 290.027344 744.421875 282.914062 744.421875 274.121094 C 744.421875 265.3125 751.527344 258.210938 760.332031 258.210938 C 769.136719 258.210938 776.242188 265.3125 776.242188 274.121094 " fill-opacity="1" fill-rule="nonzero"/><g clip-path="url(#clip-4)"><path fill="rgb(21.569824%, 52.159119%, 73.329163%)" d="M 60.640625 101.945312 L 48.992188 101.945312 L 48.992188 48.722656 L 102.214844 48.722656 L 102.214844 60.371094 L 60.640625 60.371094 Z M 60.640625 101.945312 " fill-opacity="1" fill-rule="nonzero"/></g></svg>